# xmcd
#
# Track frame offsets: 
#        150
#        17812
#        35013
#        57494
#        76187
#        94460
#        118186
#        137004
#        161063
#        186777
#
# Disc length: 2770 seconds
#
# Revision: 0
# Processed by: cddbd v1.5.2PL0 Copyright (c) Steve Scherf et al.
# Submitted via: ExactAudioCopy v1.0b3
#
DISCID=890ad00a
DTITLE=しほり - 青い蝶
DYEAR=2015
DGENRE=JPop
TTITLE0=愛のコトバ
TTITLE1=青い蝶
TTITLE2=手紙を書くよ
TTITLE3=『思ひ出小往』
TTITLE4=もっと
TTITLE5=ご機嫌ななめはまっすぐに
TTITLE6=鏡の森コンプレックス
TTITLE7=紺碧のアエリアル
TTITLE8=ふたりの果て
TTITLE9=ひとつのふたり
EXTD=
EXTT0=
EXTT1=
EXTT2=
EXTT3=
EXTT4=
EXTT5=
EXTT6=
EXTT7=
EXTT8=
EXTT9=
PLAYORDER=
